<?xml version="1.0" encoding="UTF-8"?>
<svg version="1.1" xmlns="http://www.w3.org/2000/svg" width="512" height="512">
<path d="M0 0 C7.89076461 4.17608993 14.29048628 10.75704188 20.57028198 16.99287415 C21.38117279 17.79473648 22.1920636 18.59659882 23.02752686 19.42276001 C24.72251493 21.10334839 26.41479861 22.78666842 28.10446167 24.47261047 C30.70311733 27.05923077 33.31988863 29.62659635 35.93746948 32.19404602 C37.58704836 33.83417491 39.23552678 35.47541151 40.88278198 37.11787415 C42.06216843 38.26796211 42.06216843 38.26796211 43.26538086 39.44128418 C44.33307205 40.51809196 44.33307205 40.51809196 45.42233276 41.61665344 C46.05470856 42.24395859 46.68708435 42.87126373 47.33862305 43.51757812 C48.56246948 45.3561554 48.56246948 45.3561554 48.3336792 47.49612427 C47.46205637 49.59833532 46.47386615 50.74466899 44.87496948 52.3561554 C35.1886749 63.36965861 32.03395277 77.71150008 32.62496948 92.0436554 C33.82599289 104.06653182 37.49764297 113.59149816 44.56246948 123.3561554 C45.30496948 124.4080304 46.04746948 125.4599054 46.81246948 126.5436554 C57.4511642 137.42413863 71.36296085 144.45783535 86.66647339 144.73652649 C102.81364943 144.70212422 114.69780291 141.03196002 127.71725464 131.24629211 C128.43740753 130.70527863 129.15756042 130.16426514 129.89953613 129.6068573 C130.44830414 129.19412567 130.99707214 128.78139404 131.56246948 128.3561554 C136.95307208 133.60671347 142.32665396 138.87419475 147.67995644 144.16276932 C150.16722311 146.61894338 152.65965455 149.06931463 155.16549683 151.50654602 C158.05715545 154.31953356 160.9232983 157.15738429 163.78903198 159.9967804 C164.676763 160.8535437 165.56449402 161.71030701 166.47912598 162.59303284 C176.56391091 172.67237966 180.93209344 182.8609704 180.93869019 196.88960266 C180.72838834 207.37013847 177.77172695 214.26395852 170.59101009 221.96601295 C170.10817674 222.48472195 169.62534339 223.00343095 169.12787872 223.5378584 C163.83741713 229.1896077 158.38903798 234.68443286 152.9183197 240.16093445 C151.78698631 241.29701432 150.65585655 242.433297 149.52490991 243.56976187 C146.45110614 246.65730253 143.37428867 249.74182367 140.29687703 252.82576776 C137.64957942 255.47948977 135.00410492 258.13502562 132.35863549 260.79056995 C123.6583289 269.52398395 114.95230764 278.25168891 106.24464121 286.97776407 C103.97653765 289.25067269 101.70852264 291.52366965 99.44052577 293.79668474 C85.33185166 307.93630998 71.22103013 322.07378997 57.10527897 336.20635033 C53.84561806 339.46996007 50.58598432 342.73359694 47.3263855 345.99726868 C46.51632529 346.80833724 45.70626509 347.61940581 44.8716576 348.45505221 C31.73081289 361.61292774 18.60207477 374.78281619 5.47813065 387.95754652 C-8.01697992 401.50444745 -21.52340924 415.03998137 -35.04081255 428.56463873 C-42.62197275 436.15045599 -50.19803436 443.74121764 -57.76130486 451.34487534 C-64.1965539 457.81444935 -70.64192264 464.27372152 -77.10068195 470.71982829 C-80.39288026 474.00620821 -83.68007682 477.29720466 -86.95424271 480.60155869 C-89.95590164 483.6306663 -92.97128143 486.64539565 -95.99782664 489.64963217 C-97.08571982 490.73431467 -98.16863817 491.82401673 -99.24577688 492.91937964 C-108.92746692 502.7547688 -118.80296145 509.55191224 -132.93753052 509.6686554 C-147.6306987 509.68180691 -156.57204278 504.18099907 -166.94754028 494.07319641 C-168.51314885 492.5072767 -170.07343651 490.93602283 -171.62893677 489.36006165 C-172.87500954 488.10974403 -172.87500954 488.10974403 -174.14625549 486.83416748 C-176.76896149 484.20036776 -179.38458335 481.55966146 -182.00003052 478.9186554 C-183.78927823 477.11936392 -185.57898748 475.32053128 -187.36917114 473.52217102 C-191.73063829 469.13878708 -196.08632873 464.74972826 -200.43753052 460.3561554 C-200.02479889 459.80738739 -199.61206726 459.25861938 -199.18682861 458.69322205 C-198.64581512 457.97306915 -198.10480164 457.25291626 -197.5473938 456.51094055 C-197.01091217 455.79717255 -196.47443054 455.08340454 -195.92169189 454.3480072 C-185.49023125 440.34823329 -182.74673865 425.48177256 -184.43753052 408.3561554 C-187.41880779 392.14336665 -196.11320036 379.94134898 -209.22659302 370.43818665 C-222.52199092 361.8172048 -237.38058786 359.84148486 -252.75003052 362.4811554 C-262.99993326 364.67903033 -271.38709093 368.56063556 -278.71878052 376.13349915 C-280.43753052 377.3561554 -280.43753052 377.3561554 -282.31123352 377.14202881 C-284.90123092 376.18477302 -286.22243727 374.95199536 -288.17703247 373.00483704 C-289.25384026 371.94221397 -289.25384026 371.94221397 -290.35240173 370.85812378 C-291.5024897 369.69892677 -291.5024897 369.69892677 -292.67581177 368.51631165 C-293.47480392 367.72018967 -294.27379608 366.92406769 -295.09700012 366.1038208 C-296.78931777 364.41354615 -298.4778467 362.71947102 -300.16287231 361.02192688 C-302.71933984 358.44953722 -305.29121604 355.89335966 -307.86526489 353.33857727 C-309.51140874 351.69044856 -311.15662042 350.04138819 -312.80081177 348.39131165 C-313.56146439 347.63673172 -314.322117 346.88215179 -315.1058197 346.10470581 C-325.5116543 335.563578 -331.65665505 326.27328629 -331.81253052 311.3561554 C-331.60667615 293.38488661 -321.54617664 282.99391322 -309.19143677 270.75361633 C-308.07946205 269.64084862 -306.96814278 268.5274256 -305.85742188 267.41340637 C-302.86835022 264.41924806 -299.87012685 261.43441663 -296.86991501 258.45142651 C-293.71617751 255.31284877 -290.5706679 252.16604426 -287.42410278 249.02027893 C-282.14355144 243.74340692 -276.85742203 238.4721785 -271.56741333 233.20478821 C-264.79488412 226.46115892 -258.03166651 219.7082706 -251.27134705 212.95240402 C-245.43348248 207.11853113 -239.59137142 201.28891598 -233.74857712 195.45998096 C-231.88237211 193.59785594 -230.01673972 191.73515868 -228.15118408 189.87238312 C-225.21182777 186.93795352 -222.26982069 184.00620577 -219.32580948 181.07644653 C-218.25113442 180.00625751 -217.17726692 178.93525677 -216.10430527 177.86334991 C-214.62969623 176.39051431 -213.15203477 174.9208061 -211.6736145 173.45179749 C-210.85070419 172.63186184 -210.02779388 171.81192619 -209.1799469 170.96714401 C-207.00662253 168.8979742 -204.80576419 166.92200089 -202.53787613 164.96028614 C-198.72977786 161.6516165 -195.14039159 158.18175337 -191.59591675 154.59442139 C-190.95643042 153.95155609 -190.31694409 153.30869079 -189.65807939 152.64634472 C-187.5388461 150.51481607 -185.42328347 148.37968203 -183.30764771 146.24458313 C-181.77942458 144.70624402 -180.25092912 143.16817543 -178.72218323 141.63035583 C-175.44117432 138.32930458 -172.16150827 135.02692693 -168.88271332 131.72367668 C-163.69174478 126.49518542 -158.49417222 121.27329356 -153.29501343 116.052948 C-151.97614281 114.7286213 -151.97614281 114.7286213 -150.63062835 113.37754053 C-148.83333432 111.57284136 -147.03602393 109.76815849 -145.23869753 107.96349156 C-133.1437181 95.81862648 -121.05302042 83.66958591 -108.98098755 71.50190735 C-100.8250303 63.28143086 -92.65840933 55.07171476 -84.47940373 46.87416798 C-80.15737126 42.54148107 -75.84093709 38.20353125 -71.53752899 33.85233879 C-67.48910872 29.75912637 -63.42674461 25.68028195 -59.35350227 21.61177444 C-57.86645538 20.12149552 -56.38450813 18.62610663 -54.90826988 17.12512016 C-40.18384486 2.16519002 -21.5335305 -9.80415487 0 0 Z M-55.82666016 95.99684143 C-56.62035889 96.78259135 -57.41405762 97.56834127 -58.23180783 98.37790179 C-60.8784546 101.00535293 -63.50318619 103.65363953 -66.12844849 106.30244446 C-68.02511797 108.19425636 -69.92292734 110.08485773 -71.82218933 111.97406006 C-76.43671301 116.56964688 -81.03504838 121.18110772 -85.62792329 125.79831991 C-90.97986205 131.17755504 -96.34708043 136.54143642 -101.71479334 141.90492329 C-111.2924989 151.47625495 -120.85529461 161.06234748 -130.41018677 170.65644836 C-139.67700889 179.96128696 -148.95567442 189.25410761 -158.24710083 198.53437805 C-168.37194928 208.64710575 -178.49051504 218.76603946 -188.5979377 228.89618659 C-189.67602991 229.97669332 -190.7541234 231.05719877 -191.83221817 232.13770294 C-192.36261443 232.66930628 -192.89301068 233.20090961 -193.43947955 233.74862213 C-197.1738482 237.49074252 -200.91246746 241.2285837 -204.65261459 244.96492767 C-209.21090914 249.51897423 -213.76176168 254.08031011 -218.30341487 258.65095505 C-220.61986318 260.98187136 -222.94038962 263.30844264 -225.26758385 265.62863731 C-227.79119671 268.14580959 -230.30217779 270.6749435 -232.81030273 273.20753479 C-233.54637815 273.93605156 -234.28245357 274.66456833 -235.04083431 275.41516137 C-239.57772893 280.03072206 -242.66655665 284.05533056 -243.83596802 290.57881165 C-243.74678446 297.57972094 -241.0621754 302.03579421 -236.40263367 307.06748962 C-235.20290767 308.36367155 -235.20290767 308.36367155 -233.97894478 309.68603897 C-229.70802345 314.17324806 -225.3698604 318.58814761 -220.99588013 322.97480774 C-219.98273859 323.99423467 -218.96977917 325.01384261 -217.95698547 326.03361511 C-214.67143996 329.33992486 -211.38081215 332.64115189 -208.08987427 335.9420929 C-206.9492904 337.08673214 -205.80873746 338.23140221 -204.6682148 339.37610245 C-199.31540519 344.7478883 -193.96023919 350.11731114 -188.60212415 355.48380506 C-182.44043878 361.65529015 -176.28715382 367.83499751 -170.14073938 374.02169073 C-165.36874989 378.82386715 -160.58908387 383.61831593 -155.8036328 388.40707743 C-152.95369612 391.25935779 -150.10712114 394.11480781 -147.26865959 396.97851181 C-144.60235555 399.66815267 -141.92661937 402.34804342 -139.24350166 405.02090836 C-138.26452045 405.99939579 -137.28891488 406.98127492 -136.3170929 407.96687317 C-130.48586858 413.87606999 -125.17029948 419.22293362 -116.75003052 420.8874054 C-115.60534302 420.87193665 -115.60534302 420.87193665 -114.43753052 420.8561554 C-113.67440552 420.8664679 -112.91128052 420.8767804 -112.12503052 420.8874054 C-104.09551507 419.3001756 -98.87580347 414.37076368 -93.32723999 408.74707031 C-92.55143546 407.97680018 -91.77563093 407.20653004 -90.97631717 406.41291839 C-88.3890298 403.83920286 -85.81623018 401.25148606 -83.24319458 398.66352844 C-81.3872949 396.81141314 -79.53053761 394.96015686 -77.67298889 393.10969543 C-73.15910398 388.6097161 -68.65599673 384.09909955 -64.1566039 379.58463486 C-58.91303805 374.32417648 -53.6594199 369.07380509 -48.40553316 363.82365821 C-39.02998982 354.45398846 -29.66449057 345.07434188 -20.30422974 335.68940735 C-11.22779937 326.58905427 -2.14299233 317.49716768 6.95065308 308.41401672 C16.8610836 298.51500283 26.7667419 288.61125821 36.66424966 278.69932204 C37.72018684 277.64185907 38.77612675 276.58439881 39.8320694 275.5269413 C40.61131053 274.74656344 40.61131053 274.74656344 41.40629391 273.95042038 C45.06228437 270.28969313 48.72155447 266.63226411 52.38204193 262.97603416 C57.31077418 258.05275109 62.2313222 253.1214102 67.14651299 248.18460846 C68.95151924 246.3740381 70.75907725 244.56600754 72.56936073 242.76071358 C75.03995378 240.29607704 77.50112005 237.82239332 79.96011353 235.34619141 C80.67839443 234.63392055 81.39667533 233.92164969 82.13672233 233.18779486 C87.4928846 227.76328331 92.08459219 222.26761675 92.64450073 214.38349915 C92.13311878 201.7450595 78.35066964 191.99314345 70.10494995 183.73750305 C69.09017621 182.71808605 68.07559456 181.6984778 67.06118774 180.67869568 C64.33654607 177.94108849 61.60871264 175.20668522 58.87981939 172.47331667 C57.1708423 170.76138799 55.46244506 169.04888266 53.75421524 167.33620834 C48.39632574 161.96469692 43.03647759 156.59515162 37.67371452 151.22850573 C31.50514198 145.05544018 25.34319179 138.87586235 19.18682945 132.69062006 C14.40802228 127.89018066 9.62345048 123.09553688 4.83448327 118.30523336 C1.981976 115.45168086 -0.86807661 112.59577794 -3.7121315 109.73379898 C-6.38305879 107.04636024 -9.06109569 104.36621352 -11.74466705 101.69140244 C-12.72479889 100.71203883 -13.70239548 99.73013 -14.67717361 98.74543762 C-23.9311959 89.16967534 -23.9311959 89.16967534 -36.35262477 85.26515222 C-44.83394382 85.63534977 -50.13211879 90.18608673 -55.82666016 95.99684143 Z " fill="#000000" transform="translate(331.4375305175781,2.6438446044921875)"/>
<path d="M0 0 C3.87082649 3.26977189 7.67562602 6.55034639 11.25852966 10.13827515 C12.02542618 10.903797 12.79232269 11.66931885 13.5824585 12.45803833 C14.39885803 13.27803314 15.21525757 14.09802795 16.05639648 14.94287109 C16.93524002 15.8215686 17.81408356 16.70026611 18.71955872 17.60559082 C21.10931511 19.99592117 23.4968428 22.38843608 25.88337588 24.78198195 C28.38529346 27.29018525 30.89007639 29.79552389 33.39454651 32.30117798 C38.12789866 37.03762814 42.85869768 41.77661977 47.58856684 46.5165478 C52.97720561 51.91639542 58.36871174 57.31337627 63.7604512 62.71012759 C74.84347658 73.80358268 85.92292622 84.9006019 97 96 C95.69619283 98.87374749 94.31275641 100.93660341 92.08333397 103.16276169 C91.48369123 103.76638653 90.88404849 104.37001136 90.26623476 104.99192786 C89.60670828 105.64562865 88.9471818 106.29932945 88.26766968 106.97283936 C87.56767337 107.67454451 86.86767707 108.37624966 86.14646876 109.09921861 C83.7942708 111.45471686 81.43498447 113.80298493 79.07568359 116.15136719 C77.39025147 117.83623532 75.70525932 119.52154368 74.02067566 121.20726013 C69.91650836 125.31194266 65.80776615 129.41200364 61.69699191 133.51006857 C56.91393387 138.27883219 52.13652851 143.05324185 47.35946997 147.82801417 C38.84023374 156.34287332 30.3165409 164.8532567 21.79003906 173.36083984 C13.50742282 181.62509763 5.22691007 189.8914537 -3.05078125 198.16064453 C-3.56103205 198.67036988 -4.07128284 199.18009523 -4.59699579 199.7052668 C-7.15676509 202.26242603 -9.71649308 204.81962661 -12.27620053 207.37684774 C-33.51106565 228.59097996 -54.75324042 249.79778015 -76 271 C-79.25234287 269.45105965 -81.45212873 267.80456331 -84.01838684 265.25576782 C-84.80784698 264.47628281 -85.59730713 263.69679779 -86.41069031 262.89369202 C-87.26749893 262.03754807 -88.12430756 261.18140411 -89.00708008 260.29931641 C-89.91635254 259.39836746 -90.825625 258.49741852 -91.76245117 257.56916809 C-94.25259532 255.10094033 -96.73616184 252.62619659 -99.21791291 250.14953279 C-100.76805909 248.6030312 -102.31949509 247.05783555 -103.87137413 245.51307297 C-109.28316858 240.12575551 -114.68923417 234.73275717 -120.09057617 229.33496094 C-125.12985011 224.29932895 -130.18212486 219.27700116 -135.24043924 214.26050246 C-139.58137753 209.95420005 -143.91270077 205.63838355 -148.23670501 201.31507814 C-150.82018799 198.73238976 -153.40753068 196.15387076 -156.00477028 193.58501053 C-158.89710904 190.72357564 -161.76925547 187.84267832 -164.63989258 184.95947266 C-165.50682236 184.10737717 -166.37375214 183.25528168 -167.26695251 182.37736511 C-168.04231354 181.59224045 -168.81767456 180.80711578 -169.61653137 179.99819946 C-170.29807187 179.31867029 -170.97961237 178.63914112 -171.68180561 177.93902016 C-173 176 -173 176 -172.75796437 174.07745993 C-171.90065924 171.72772277 -170.9549489 170.58195628 -169.19076443 168.82162094 C-168.58962934 168.21451271 -167.98849425 167.60740448 -167.36914295 166.98189902 C-166.70281268 166.32430728 -166.03648242 165.66671554 -165.34996033 164.98919678 C-164.29512218 163.93051372 -164.29512218 163.93051372 -163.21897417 162.85044312 C-160.85219959 160.47871288 -158.47483478 158.11788892 -156.09741211 155.75683594 C-154.40206072 154.06233043 -152.70736899 152.36716471 -151.01329041 150.67138672 C-147.36016259 147.01757495 -143.70246417 143.36840574 -140.04057121 139.72338104 C-134.74608902 134.45327171 -129.45990236 129.17490571 -124.17570884 123.89448264 C-115.60240674 115.32774772 -107.02242544 106.76773481 -98.43823242 98.21191406 C-90.0991086 89.90032392 -81.76313895 81.58559123 -73.43139648 73.26660156 C-72.91789597 72.75388922 -72.40439545 72.24117687 -71.87533432 71.71292779 C-69.29929314 69.1408017 -66.7233139 66.56861359 -64.14736545 63.99639463 C-42.77450468 42.65463806 -21.390689 21.32388831 0 0 Z " fill="#000000" transform="translate(294,120)"/>
</svg>
