<?xml version="1.0" encoding="UTF-8"?>
<svg version="1.1" xmlns="http://www.w3.org/2000/svg" width="512" height="512">
<path d="M0 0 C1.04064 -0.0034177 2.08128 -0.0068354 3.15345454 -0.01035666 C6.65146962 -0.01696181 10.14872273 0.00508484 13.64666748 0.0269165 C16.14968854 0.02804441 18.65271092 0.02741224 21.1557312 0.02514648 C26.55020249 0.02423468 31.94443517 0.03560299 37.3388443 0.05809784 C45.1382202 0.09060031 52.93750252 0.10102304 60.7369388 0.10604981 C73.39082067 0.11480523 86.04459942 0.14142747 98.69842529 0.17926025 C110.99073775 0.21597397 123.28302221 0.24428885 135.57537842 0.2612915 C136.3330244 0.2623424 137.09067038 0.26339329 137.87127534 0.26447603 C141.67214672 0.26969617 145.4730183 0.274751 149.27389002 0.27972364 C180.80805489 0.32119337 212.34209162 0.39194574 243.87615967 0.48101807 C243.895979 1.27798096 243.91579834 2.07494385 243.93621826 2.89605713 C244.03149215 6.50804278 244.14116273 10.11945206 244.25115967 13.73101807 C244.29756592 15.61240479 244.29756592 15.61240479 244.34490967 17.53179932 C244.38358154 18.73707275 244.42225342 19.94234619 244.46209717 21.18414307 C244.50922852 22.84945068 244.50922852 22.84945068 244.55731201 24.54840088 C244.8672038 27.39864607 245.34489814 29.08612781 246.87615967 31.48101807 C249.69481041 33.67330197 250.98709952 33.46992408 254.62615967 33.10601807 C255.69865967 32.89976807 256.77115967 32.69351807 257.87615967 32.48101807 C258.99799674 29.11550684 259.08416935 26.39041575 259.19256592 22.84429932 C259.23446045 21.54556885 259.27635498 20.24683838 259.31951904 18.90875244 C259.35932954 17.53701046 259.39904183 16.16526563 259.43865967 14.79351807 C259.48186802 13.41004161 259.52548305 12.0265778 259.56951904 10.64312744 C259.67573995 7.25586087 259.77778324 3.86852007 259.87615967 0.48101807 C266.92356083 0.37964803 273.97077419 0.30956523 281.01873779 0.2612915 C283.41659572 0.24116871 285.81440454 0.21386747 288.21209717 0.17926025 C291.6575329 0.13077316 295.10232018 0.10805566 298.54803467 0.09039307 C300.1576004 0.05942535 300.1576004 0.05942535 301.79968262 0.02783203 C303.30078583 0.02737885 303.30078583 0.02737885 304.83221436 0.0269165 C306.15125763 0.01359283 306.15125763 0.01359283 307.49694824 0 C310.69293513 0.64614999 311.86852088 1.96299727 313.87615967 4.48101807 C314.74725342 7.83648682 314.74725342 7.83648682 315.31365967 11.66851807 C316.96025618 21.17454774 320.06162536 27.83604291 327.64178467 33.97711182 C333.52652712 37.93799616 339.58489057 39.92813881 346.67303467 39.91461182 C350.11774414 40.80021975 352.58941545 42.83452396 354.87615967 45.48101807 C355.63120651 48.67477417 355.63120651 48.67477417 355.63806152 52.35064697 C355.65210144 53.36856795 355.65210144 53.36856795 355.66642499 54.40705299 C355.69030564 56.67469742 355.67142654 58.93991948 355.65252686 61.20758057 C355.66065948 62.835667 355.67134393 64.46374238 355.68438721 66.09179688 C355.71173383 70.50932646 355.70113848 74.92601504 355.68211269 79.34355927 C355.66691896 83.96703859 355.68101082 88.59044606 355.69042969 93.21392822 C355.70134478 100.97821986 355.68696219 108.74216905 355.65838623 116.50640869 C355.62573246 125.48224901 355.63630953 134.45727162 355.66934466 143.43309212 C355.69657502 151.14028484 355.70041366 158.84723143 355.68471265 166.55445671 C355.67535966 171.15733112 355.67410771 175.7598212 355.69393158 180.3626709 C355.71126816 184.69027215 355.69923601 189.01681953 355.66456604 193.34430695 C355.65663432 194.93217468 355.65890833 196.52013116 355.67214203 198.10796356 C355.68855241 200.2769677 355.66797506 202.44259986 355.63806152 204.61138916 C355.63579937 205.82442719 355.63353722 207.03746521 355.63120651 208.28726196 C354.55562632 212.83683507 352.71827294 213.89574186 348.87615967 216.48101807 C345.76287842 217.23101807 345.76287842 217.23101807 342.56365967 217.48101807 C333.3311533 218.63639429 327.22513448 222.06770672 321.37615967 229.32476807 C316.89087774 235.77236083 315.37511187 242.0222876 314.56365967 249.78179932 C313.70571124 253.15022185 312.54866547 254.29378287 309.87615967 256.48101807 C307.49694824 256.96203613 307.49694824 256.96203613 304.83221436 256.93511963 C303.83147888 256.9348175 302.83074341 256.93451538 301.79968262 256.9342041 C300.72663879 256.91355896 299.65359497 256.89291382 298.54803467 256.87164307 C296.89182098 256.86315338 296.89182098 256.86315338 295.20214844 256.85449219 C291.67637741 256.83210575 288.15162343 256.78190303 284.62615967 256.73101807 C282.23554935 256.7109561 279.84492309 256.6927048 277.45428467 256.67633057 C271.59456279 256.6322335 265.73543389 256.56529805 259.87615967 256.48101807 C259.85428589 255.1868396 259.85428589 255.1868396 259.83197021 253.86651611 C259.77088213 250.66252159 259.69672418 247.45917181 259.6137085 244.25567627 C259.58047418 242.86972429 259.55243741 241.48363746 259.52972412 240.09747314 C259.4961535 238.10394963 259.44227966 236.11080066 259.38787842 234.11773682 C259.36169434 232.91850586 259.33551025 231.7192749 259.30853271 230.48370361 C259.12186861 227.504859 259.12186861 227.504859 257.496521 225.61700439 C255.27498974 224.05955601 253.57564687 223.67854152 250.87615967 223.48101807 C248.33916701 224.27835862 247.23143088 224.92936658 245.78875732 227.16949463 C244.62526733 230.11650461 244.55169983 232.61193225 244.46209717 235.77789307 C244.42342529 236.9831665 244.38475342 238.18843994 244.34490967 239.43023682 C244.29850342 241.31162354 244.29850342 241.31162354 244.25115967 243.23101807 C244.21248779 244.50074463 244.17381592 245.77047119 244.13397217 247.07867432 C244.03971745 250.21264376 243.95410801 253.34660755 243.87615967 256.48101807 C211.58616859 256.57222561 179.29621408 256.64303458 147.00612433 256.68527938 C143.19587548 256.69028234 139.38562689 256.69545962 135.57537842 256.70074463 C134.81681151 256.70179387 134.0582446 256.70284311 133.27669081 256.70392415 C120.98648661 256.72133975 108.69635709 256.75288376 96.40619722 256.78962925 C83.79976422 256.8270066 71.1933704 256.84924712 58.58688426 256.85737205 C50.80502536 256.8628665 43.02337751 256.88023362 35.24158356 256.91268393 C29.27922113 256.93628393 23.31696761 256.93884602 17.35455704 256.93344879 C14.90513685 256.93455254 12.45570894 256.94255274 10.00633621 256.95783997 C6.6705926 256.97764442 3.33576331 256.97299154 0 256.96203613 C-0.9766495 256.9736875 -1.953299 256.98533886 -2.95954394 256.9973433 C-9.47485352 256.93922022 -9.47485352 256.93922022 -12.70213699 254.66067123 C-14.68409384 251.62207774 -15.03276179 248.86962534 -15.56134033 245.29351807 C-17.20793684 235.7874884 -20.30930603 229.12599323 -27.88946533 222.98492432 C-33.77420779 219.02403997 -39.83257124 217.03389732 -46.92071533 217.04742432 C-50.3654248 216.16181638 -52.83709611 214.12751218 -55.12384033 211.48101807 C-55.87888718 208.28726196 -55.87888718 208.28726196 -55.88574219 204.61138916 C-55.8997821 203.59346818 -55.8997821 203.59346818 -55.91410565 202.55498314 C-55.9379863 200.28733871 -55.91910721 198.02211665 -55.90020752 195.75445557 C-55.90834014 194.12636914 -55.9190246 192.49829375 -55.93206787 190.87023926 C-55.9594145 186.45270968 -55.94881914 182.0360211 -55.92979336 177.61847687 C-55.91459962 172.99499754 -55.92869148 168.37159008 -55.93811035 163.74810791 C-55.94902544 155.98381627 -55.93464285 148.21986709 -55.90606689 140.45562744 C-55.87341313 131.47978713 -55.8839902 122.50476451 -55.91702533 113.52894402 C-55.94425568 105.8217513 -55.94809432 98.1148047 -55.93239331 90.40757942 C-55.92304032 85.80470502 -55.92178837 81.20221493 -55.94161224 76.59936523 C-55.95894883 72.27176399 -55.94691667 67.9452166 -55.9122467 63.61772919 C-55.90431498 62.02986145 -55.906589 60.44190497 -55.91982269 58.85407257 C-55.93623308 56.68506843 -55.91565573 54.51943627 -55.88574219 52.35064697 C-55.88348003 51.13760895 -55.88121788 49.92457092 -55.87888718 48.67477417 C-54.80330698 44.12520106 -52.9659536 43.06629428 -49.12384033 40.48101807 C-46.01055908 39.73101807 -46.01055908 39.73101807 -42.81134033 39.48101807 C-33.57883396 38.32564184 -27.47281515 34.89432941 -21.62384033 27.63726807 C-17.13855841 21.1896753 -15.62279254 14.93974853 -14.81134033 7.18023682 C-12.80277158 -0.70567801 -6.85809856 -0.08181667 0 0 Z M26.18865967 72.23101807 C10.87030894 89.93344126 3.77335418 112.0315394 5.09100342 135.27008057 C7.6938052 158.81923953 18.13705873 178.7654106 36.14959717 194.35211182 C53.95010589 208.25078983 76.20953121 215.76256485 98.85321045 213.26275635 C118.84607163 210.47931176 135.34221958 202.57610028 149.87615967 188.48101807 C150.48846436 187.94218994 151.10076904 187.40336182 151.73162842 186.84820557 C166.00076774 173.85251346 174.13838727 152.63898916 175.19256592 133.75445557 C175.99299252 110.31696419 168.74541767 88.54925466 152.79412842 71.02398682 C146.48331836 64.3518564 139.98724527 58.89047805 131.87615967 54.48101807 C130.94416748 53.94992432 130.01217529 53.41883057 129.05194092 52.87164307 C94.19668222 34.0712098 52.70493059 44.21639622 26.18865967 72.23101807 Z M244.87615967 51.48101807 C243.14503527 56.67439126 243.6506936 62.24011013 243.63592529 67.67730713 C243.62622503 69.84143592 243.59519199 72.00461225 243.56365967 74.16851807 C243.55712839 75.55132495 243.55187841 76.9341386 243.54803467 78.31695557 C243.53868896 79.57040771 243.52934326 80.82385986 243.51971436 82.11529541 C244.00734232 86.71970579 245.64961369 89.25447209 248.87615967 92.48101807 C252.47342438 92.96065336 254.35542826 92.77529876 257.53387451 90.97906494 C260.73318269 87.5670031 260.59823777 84.58617011 260.54022217 80.13726807 C260.5450058 79.33116089 260.54978943 78.52505371 260.55471802 77.69451904 C260.55811455 75.99328658 260.54892907 74.29198864 260.52801514 72.59088135 C260.50124155 69.98897584 260.52776644 67.39138339 260.55975342 64.78961182 C260.55644927 63.13465439 260.55004292 61.47969965 260.54022217 59.82476807 C260.5554039 58.66056335 260.5554039 58.66056335 260.57089233 57.47283936 C260.48701107 53.60068738 260.2258215 51.8515303 257.52606201 48.99078369 C252.20832029 45.96103293 248.58340021 46.67533589 244.87615967 51.48101807 Z M245.87615967 108.48101807 C242.43517752 113.56226886 243.54294908 120.2830943 243.56048584 126.17999268 C243.56364445 128.40778592 243.54017627 130.63424835 243.51483154 132.86187744 C243.51255813 134.2857039 243.51185525 135.70953391 243.51287842 137.13336182 C243.50989746 138.42234375 243.5069165 139.71132568 243.50384521 141.03936768 C243.9012283 144.71275087 244.62960586 146.5801733 246.87615967 149.48101807 C249.63830939 151.15174849 249.63830939 151.15174849 252.87615967 151.48101807 C257.20232246 149.95189728 257.20232246 149.95189728 259.87615967 146.48101807 C260.01149722 143.82914881 260.0888051 141.20476838 260.11444092 138.55133057 C260.12251266 137.76458954 260.13058441 136.97784851 260.13890076 136.16726685 C260.15273871 134.50120242 260.16346216 132.83510968 260.17132568 131.16900635 C260.18854668 128.62272407 260.23243384 126.0777377 260.27655029 123.53179932 C260.28667669 121.91331928 260.29519296 120.29482821 260.30194092 118.67633057 C260.31944901 117.91579376 260.33695709 117.15525696 260.35499573 116.37167358 C260.34051277 112.83708494 260.1781321 110.87633172 258.00189209 108.02740479 C253.37586653 104.66215316 250.3332696 104.98760758 245.87615967 108.48101807 Z M244.87615967 168.48101807 C243.14503527 173.67439126 243.6506936 179.24011013 243.63592529 184.67730713 C243.62622503 186.84143592 243.59519199 189.00461225 243.56365967 191.16851807 C243.55712839 192.55132495 243.55187841 193.9341386 243.54803467 195.31695557 C243.53868896 196.57040771 243.52934326 197.82385986 243.51971436 199.11529541 C243.90589858 202.76182674 244.66291485 204.59031547 246.87615967 207.48101807 C249.76128945 209.82624742 249.76128945 209.82624742 253.37615967 209.35601807 C256.80306104 208.79447253 256.80306104 208.79447253 258.56561279 206.93414307 C260.41350685 203.47519383 260.34388696 200.18583849 260.34490967 196.35601807 C260.35252319 195.57210693 260.36013672 194.7881958 260.36798096 193.98052979 C260.37876571 192.32642801 260.38164165 190.67225824 260.37713623 189.01812744 C260.37616273 186.48897902 260.41782012 183.96285443 260.46209717 181.43414307 C260.46730367 179.82477438 260.46999237 178.21539517 260.46990967 176.60601807 C260.48630493 175.85175537 260.5027002 175.09749268 260.51959229 174.32037354 C260.4691982 170.48867788 260.20672919 168.83002902 257.53045654 166.00445557 C252.21740447 162.9550217 248.58558262 163.67250683 244.87615967 168.48101807 Z " fill="#000000" transform="translate(106.12384033203125,127.51898193359375)"/>
<path d="M0 0 C14.41042226 12.45832548 23.70473607 28.07161992 25.66894531 47.18261719 C26.98705363 66.25788284 21.90679363 83.99406603 9.43359375 98.7265625 C8.77617187 99.46648437 8.11875 100.20640625 7.44140625 100.96875 C6.88710937 101.60554688 6.3328125 102.24234375 5.76171875 102.8984375 C-5.88283402 115.43443929 -23.4093056 122.09224542 -40.20703125 123.1328125 C-57.4338395 123.6408417 -73.03915884 118.52722209 -86.55859375 107.96875 C-87.24566406 107.45828125 -87.93273437 106.9478125 -88.640625 106.421875 C-100.9361351 96.62426932 -108.40830295 81.09901988 -111.55859375 65.96875 C-111.97056839 62.01988696 -112.03647936 58.12429627 -111.99609375 54.15625 C-111.98852051 53.10598633 -111.98094727 52.05572266 -111.97314453 50.97363281 C-111.79823353 42.69791646 -110.73944059 35.6765701 -107.55859375 27.96875 C-106.95724609 26.45861328 -106.95724609 26.45861328 -106.34375 24.91796875 C-98.7227726 7.88674099 -84.58401733 -3.90950419 -67.55859375 -11.03125 C-44.3809119 -18.86940925 -19.33368824 -15.34888227 0 0 Z M-50.55859375 24.96875 C-51.73285639 27.31727528 -51.67367548 28.70649065 -51.65625 31.3203125 C-51.65141602 32.59648437 -51.65141602 32.59648437 -51.64648438 33.8984375 C-51.63810547 34.78789062 -51.62972656 35.67734375 -51.62109375 36.59375 C-51.61658203 37.4909375 -51.61207031 38.388125 -51.60742188 39.3125 C-51.59561966 41.53131648 -51.5791553 43.75000018 -51.55859375 45.96875 C-52.87214844 45.92234375 -54.18570313 45.8759375 -55.5390625 45.828125 C-57.27471679 45.79059734 -59.01039574 45.75419825 -60.74609375 45.71875 C-61.61041016 45.68523437 -62.47472656 45.65171875 -63.36523438 45.6171875 C-67.60138341 45.55226568 -69.9196001 45.57848115 -73.609375 47.83203125 C-75.89929433 50.34222338 -76.55859375 51.57079888 -76.55859375 54.96875 C-74.93703746 58.45509601 -73.79406083 59.81177194 -70.55859375 61.96875 C-68.43155065 62.24316372 -68.43155065 62.24316372 -66.109375 62.1640625 C-65.26181641 62.15761719 -64.41425781 62.15117187 -63.54101562 62.14453125 C-62.65994141 62.12777344 -61.77886719 62.11101562 -60.87109375 62.09375 C-59.53208008 62.08021484 -59.53208008 62.08021484 -58.16601562 62.06640625 C-55.96327061 62.04284748 -53.76106787 62.00995329 -51.55859375 61.96875 C-51.62820312 63.93908203 -51.62820312 63.93908203 -51.69921875 65.94921875 C-51.73674641 67.68487304 -51.7731455 69.42055199 -51.80859375 71.15625 C-51.84210938 72.02056641 -51.875625 72.88488281 -51.91015625 73.77539062 C-51.97475707 77.99059428 -51.93969626 80.33412087 -49.7265625 84.01953125 C-46.93906331 86.52576926 -45.29451497 86.96875 -41.55859375 86.96875 C-37.83015411 85.23530125 -37.83015411 85.23530125 -35.55859375 81.96875 C-35.47486716 80.44726674 -35.45129348 78.92219222 -35.4609375 77.3984375 C-35.46416016 76.50253906 -35.46738281 75.60664063 -35.47070312 74.68359375 C-35.47908203 73.74644531 -35.48746094 72.80929687 -35.49609375 71.84375 C-35.50060547 70.89886719 -35.50511719 69.95398438 -35.50976562 68.98046875 C-35.52157018 66.64316613 -35.53803616 64.30598939 -35.55859375 61.96875 C-34.97891846 61.99493408 -34.39924316 62.02111816 -33.80200195 62.0480957 C-31.158645 62.15245612 -28.51572176 62.21719327 -25.87109375 62.28125 C-24.50307617 62.3440918 -24.50307617 62.3440918 -23.10742188 62.40820312 C-18.44544337 62.49296637 -16.283008 62.51274409 -12.453125 59.63671875 C-10.37411935 57.08622877 -10.37411935 57.08622877 -9.93359375 53.96875 C-10.80416768 49.78999512 -12.14467991 48.53240605 -15.55859375 45.96875 C-19.0182411 45.36183323 -22.37234394 45.49553004 -25.87109375 45.65625 C-26.80244141 45.67880859 -27.73378906 45.70136719 -28.69335938 45.72460938 C-30.98343335 45.78332922 -33.2701725 45.86538142 -35.55859375 45.96875 C-35.53240967 45.38907471 -35.50622559 44.80939941 -35.47924805 44.2121582 C-35.37488763 41.56880125 -35.31015048 38.92587801 -35.24609375 36.28125 C-35.18325195 34.91323242 -35.18325195 34.91323242 -35.11914062 33.51757812 C-35.0339643 28.83288029 -35.00724521 26.69416064 -37.921875 22.859375 C-40.37811334 20.83858199 -40.37811334 20.83858199 -43.05859375 20.40625 C-46.36732884 21.15071539 -48.11468856 22.66061732 -50.55859375 24.96875 Z " fill="#000000" transform="translate(239.55859375,202.03125)"/>
</svg>
